<svg width="40" height="40" viewBox="0 0 40 40" fill="none" xmlns="http://www.w3.org/2000/svg">
<path d="M20.347 31.2065L34.9142 20.7845C35.0442 20.6914 35.1501 20.5688 35.2232 20.4267C35.2963 20.2845 35.3345 20.1271 35.3346 19.9673V19.9649C35.3343 19.8045 35.2957 19.6465 35.222 19.504C35.1483 19.3615 35.0417 19.2387 34.911 19.1457L20.3438 8.79087C20.1932 8.68382 20.016 8.62035 19.8317 8.60744C19.6474 8.59453 19.4631 8.63266 19.299 8.71767C19.1348 8.8022 18.997 8.93043 18.901 9.08824C18.8049 9.24606 18.7543 9.42732 18.7546 9.61207V14.4853L5.67104 14.4849C5.53888 14.4848 5.40801 14.5108 5.2859 14.5614C5.1638 14.6119 5.05286 14.6861 4.95943 14.7795C4.866 14.873 4.79191 14.984 4.74139 15.1061C4.69088 15.2282 4.66493 15.3591 4.66504 15.4913L4.66544 24.5077C4.66539 24.6398 4.69138 24.7707 4.74194 24.8929C4.7925 25.015 4.86663 25.126 4.96009 25.2194C5.05355 25.3129 5.16452 25.387 5.28664 25.4376C5.40877 25.4881 5.53966 25.5141 5.67184 25.5141H18.7542V30.3889C18.7542 30.7649 18.9662 31.1101 19.3006 31.2837C19.4652 31.3685 19.6501 31.4061 19.8347 31.3925C20.0194 31.3789 20.1967 31.3145 20.347 31.2065Z" fill="#0F6C96"/>
</svg>
